<svg xmlns="http://www.w3.org/2000/svg" viewBox="0 0 256 256"><defs><style>.cls-1{fill:#1d384d;}</style></defs><title>money growth</title><g id="icons_without_caption" data-name="icons without caption"><g id="GROWTH"><path class="cls-1" d="M160,92a34.15,34.15,0,0,0,2.43-12.74,34.48,34.48,0,0,0-69,0A34.15,34.15,0,0,0,96,92a29.3,29.3,0,1,0,32.1,42.88c3.27,5.52,11,15,25.44,15A29.3,29.3,0,0,0,160,92Zm-6.55,53.86c-17.46,0-23.37-15.56-23.61-16.22l-1.83-5-1.92,5A25.3,25.3,0,1,1,99.08,95.46l2.75-.37-1.22-2.49a30.18,30.18,0,0,1-3.09-13.37,30.48,30.48,0,0,1,61,0,30.18,30.18,0,0,1-3.09,13.37l-1.22,2.49,2.75.37a25.3,25.3,0,0,1-3.42,50.36Z"/><rect class="cls-1" x="126" y="130.29" width="4" height="26.15"/><path class="cls-1" d="M87.32,162.87l12.35,48.39H155.2l13.55-48.39Zm76.15,4-3.31,11.82H95.49l-3-11.82Zm-11.31,40.39H102.78l-6.27-24.56H159Z"/><path class="cls-1" d="M139.22,101.68c0,4.93-3.47,8.39-9.33,8.86v5.85h-3.23V110.5a16.83,16.83,0,0,1-9.88-4.74l2.52-3a13.71,13.71,0,0,0,9.31,4c3.56,0,6.2-1.77,6.2-4.81,0-3.46-2.78-4.62-7.23-6-5.28-1.7-10.09-3.35-10.09-9.1,0-4.69,3.28-8.25,9.17-8.53V72.2h3.23v6.32A19.75,19.75,0,0,1,138.11,82l-2.43,3a15,15,0,0,0-8.13-2.85c-3.37,0-5.73,1.58-5.73,4.41,0,3,2.92,4.13,7,5.45,5.94,1.89,10.44,3.46,10.44,9.66Z"/></g></g></svg>